<?xml version="1.0" encoding="UTF-8" standalone="no"?>
<svg
   xmlns:dc="http://purl.org/dc/elements/1.1/"
   xmlns:cc="http://creativecommons.org/ns#"
   xmlns:rdf="http://www.w3.org/1999/02/22-rdf-syntax-ns#"
   xmlns:svg="http://www.w3.org/2000/svg"
   xmlns="http://www.w3.org/2000/svg"
   viewBox="0 0 426.50668 70.09333"
   height="70.09333"
   width="426.50668"
   xml:space="preserve"
   id="svg2"
   version="1.1"><metadata
     id="metadata8"><rdf:RDF><cc:Work
         rdf:about=""><dc:format>image/svg+xml</dc:format><dc:type
           rdf:resource="http://purl.org/dc/dcmitype/StillImage" /></cc:Work></rdf:RDF></metadata><defs
     id="defs6"><clipPath
       id="clipPath20"
       clipPathUnits="userSpaceOnUse"><path
         id="path18"
         d="M 0,525.742 V 0 h 3198.83 v 525.742 z" /></clipPath></defs><g
     transform="matrix(1.3333333,0,0,-1.3333333,0,70.093333)"
     id="g10"><g
       transform="scale(0.1)"
       id="g12"><g
         id="g14"><g
           clip-path="url(#clipPath20)"
           id="g16"><path
             id="path22"
             style="fill:#ffffff;fill-opacity:1;fill-rule:nonzero;stroke:none"
             d="M 0.0429688,183.926 H 104.285 V 288.184 H 0.0429688 V 183.926" /><path
             id="path24"
             style="fill:#ffffff;fill-opacity:1;fill-rule:nonzero;stroke:none"
             d="m 250.945,501.168 c 84.899,-1.496 135.52,-58.086 142.985,-161.598 l 27.558,4.469 -5.238,181.703 H 5.19141 L 0,344.039 27.5469,339.57 C 34.9844,443.082 84.8828,499.672 170.527,501.168 V 120.637 c 0,-69.2503 -11.922,-80.4339 -86.3942,-81.1565 V 10.4375 H 337.324 v 29.043 c -74.48,0.7226 -86.379,11.9062 -86.379,81.1565 v 380.531" /><path
             id="path26"
             style="fill:#ffffff;fill-opacity:1;fill-rule:nonzero;stroke:none"
             d="M 316.348,183.926 H 420.59 V 288.184 H 316.348 V 183.926" /><path
             id="path28"
             style="fill:#ffffff;fill-opacity:1;fill-rule:nonzero;stroke:none"
             d="M 629.047,183.926 H 733.324 V 288.184 H 629.047 V 183.926" /><path
             id="path30"
             style="fill:#ffffff;fill-opacity:1;fill-rule:nonzero;stroke:none"
             d="M 941.746,183.926 H 1045.99 V 288.184 H 941.746 V 183.926" /><path
             id="path32"
             style="fill:#ffffff;fill-opacity:1;fill-rule:nonzero;stroke:none"
             d="M 1333.41,10.4375 1465.2,461.684 V 107.227 c 0,-38.7114 -2.2,-52.8715 -11.13,-61.8051 -6.74,-6.6914 -22.36,-11.1641 -39.48,-11.1641 h -6.72 V 10.4375 h 186.17 v 23.8203 h -9.67 c -17.13,0 -32.78,4.4727 -39.47,11.1641 -8.95,8.9336 -11.19,23.0937 -11.19,61.8051 v 303.085 c 0,38.727 2.24,52.876 11.19,61.813 7.42,6.707 22.34,11.176 39.47,11.176 h 9.67 v 23.824 H 1449.58 L 1340.83,141.484 1234.39,507.125 h -143.73 v -23.824 h 13.38 c 39.48,0 46.91,-8.946 46.91,-58.836 V 136.27 c 0,-46.1723 -2.2,-64.0356 -8.9,-78.2036 -7.48,-14.1328 -23.09,-23.8086 -39.49,-23.8086 h -11.9 V 10.4375 h 153.38 v 23.8203 h -9.65 c -19.37,0 -35.03,8.1836 -43.97,23.0664 -8.93,14.9102 -11.15,28.3125 -11.15,78.9458 V 461.684 L 1310.34,10.4375 h 23.07 v 0" /><path
             id="path34"
             style="fill:#ffffff;fill-opacity:1;fill-rule:evenodd;stroke:none"
             d="m 1751.02,339.57 c 26.86,0 49.9,-16.386 62.58,-44.687 11.93,-26.043 17.13,-61.797 17.13,-113.172 0,-105.7657 -26.06,-157.8712 -78.95,-157.8712 -52.85,0 -78.16,52.1055 -78.16,159.3442 0,49.902 5.19,84.902 17.13,111.699 11.87,26.832 35.72,44.687 60.27,44.687 z m 3.01,23.836 c -92.35,0 -152.68,-71.488 -152.68,-182.449 C 1601.35,72.9688 1661.68,0 1751.78,0 c 90.86,0 151.15,72.9688 151.15,181.711 0,107.969 -60.29,181.695 -148.9,181.695 v 0" /><path
             id="path36"
             style="fill:#ffffff;fill-opacity:1;fill-rule:evenodd;stroke:none"
             d="m 2104.01,334.363 c 47.66,0 72.21,-50.633 72.21,-148.941 0,-102.7775 -25.3,-156.379 -73.72,-156.379 -53.65,0 -81.93,54.3554 -81.93,154.141 0,49.16 6.72,84.152 22.35,110.23 14.14,25.309 37.98,40.949 61.09,40.949 z m -77.46,177.981 -105.74,-5.219 v -23.098 h 5.19 c 31.29,0 37.97,-10.398 37.97,-59.562 V 84.1406 c 0,-43.1953 -1.48,-55.0976 -7.42,-73.7031 h 24.55 c 18.61,29.7656 23.08,34.9844 30.53,34.9844 3.75,0 7.44,-1.4883 12.67,-5.9414 36.49,-29.793 52.11,-36.51175 85.65,-36.51175 80.39,0 138.47,77.46095 138.47,185.42925 0,102.77 -53.59,172.012 -134.02,172.012 -41.68,0 -72.23,-19.359 -87.85,-55.844 v 207.778" /><path
             id="path38"
             style="fill:#ffffff;fill-opacity:1;fill-rule:evenodd;stroke:none"
             d="m 2350.47,510.848 c -23.06,0 -41.68,-17.875 -41.68,-40.946 0,-22.359 18.62,-40.976 40.94,-40.976 23.11,0 40.96,17.867 40.96,40.976 0,22.328 -17.85,40.946 -40.22,40.946 z m 35.75,-152.664 -108.7,-5.207 v -23.079 h 8.19 c 31.29,0 37.97,-10.425 37.97,-59.57 V 93.8281 c 0,-49.1601 -6.68,-60.3203 -37.97,-60.3203 h -11.94 V 10.4375 h 162.33 v 23.0703 h -11.88 c -31.29,0 -38,10.4258 -38,60.3203 V 358.184" /><path
             id="path40"
             style="fill:#ffffff;fill-opacity:1;fill-rule:nonzero;stroke:none"
             d="m 2574.56,512.344 -108.73,-5.219 v -23.098 h 8.18 c 31.29,0 37.97,-10.398 37.97,-59.562 V 93.8281 c 0,-49.8945 -6.68,-60.3203 -37.97,-60.3203 h -11.93 V 10.4375 h 162.36 v 23.0703 h -11.9 c -31.29,0 -37.98,10.4258 -37.98,60.3203 V 512.344" /><path
             id="path42"
             style="fill:#ffffff;fill-opacity:1;fill-rule:evenodd;stroke:none"
             d="m 2717.52,210 c 0.77,78.184 26.82,127.34 68.54,127.34 41.68,0 66.27,-47.66 65.53,-127.34 h -134.07 z m 203.34,-26.074 c -3.75,110.207 -57.36,179.48 -138.55,179.48 -78.2,0 -134.79,-75.222 -134.79,-179.48 C 2647.52,71.4844 2703.36,0 2789.75,0 c 55.9,0 94.57,29.043 126.6,93.8281 l -22.34,11.9139 c -26.06,-55.1053 -52.11,-76.699 -92.33,-76.699 -58.82,0 -84.16,46.1718 -84.9,154.883 h 204.08 v 0" /><path
             id="path44"
             style="fill:#ffffff;fill-opacity:1;fill-rule:nonzero;stroke:none"
             d="m 3155.53,355.066 h 4.67 c 4.82,0 7.27,-1.785 7.27,-5.57 0,-3.934 -2.6,-5.937 -7.68,-5.937 h -4.26 z m 11.82,-16.113 c 5.21,2.078 7.83,5.731 7.83,10.797 0,3.672 -1.44,6.656 -4.18,8.805 -2.79,2.207 -6.37,3.25 -10.64,3.25 h -12.91 v -41.129 h 8.08 v 16.328 h 4.69 L 3171,320.676 h 9.08 z m -33.42,29.16 c -7.44,-7.461 -11.13,-16.371 -11.13,-26.879 0,-10.468 3.69,-19.519 11.13,-26.972 7.44,-7.461 16.39,-11.16 26.84,-11.16 10.52,0 19.45,3.699 26.89,11.16 7.44,7.453 11.17,16.504 11.17,26.972 0,10.426 -3.73,19.371 -11.17,26.762 -7.44,7.348 -16.37,11.129 -26.89,11.129 -10.45,0 -19.52,-3.699 -26.84,-11.012 z m 4.86,-49.027 c -6.13,6.082 -9.08,13.391 -9.08,22.07 0,8.516 3.03,15.875 9.14,21.942 6.06,6.101 13.34,9.136 21.88,9.136 8.61,0 15.99,-3.035 22.07,-9.136 6.11,-6.067 9.18,-13.426 9.18,-21.942 0,-8.597 -3.07,-15.957 -9.18,-22.019 -6.08,-6.11 -13.46,-9.141 -22.07,-9.141 -8.6,0 -15.96,3.031 -21.94,9.09" /><path
             id="path46"
             style="fill:#ffffff;fill-opacity:1;fill-rule:nonzero;stroke:none"
             d="m 3009.58,184.148 h 104.23 V 288.402 H 3009.58 V 184.148" /></g></g></g></g></svg>